<svg xmlns="http://www.w3.org/2000/svg"><symbol id="search" viewBox="0 0 50 50"><svg fill="gray" width="45" height="45" viewBox="0 0 1920 1920" xmlns="http://www.w3.org/2000/svg"><path d="M790.588 1468.235c-373.722 0-677.647-303.924-677.647-677.647 0-373.722 303.925-677.647 677.647-677.647 373.723 0 677.647 303.925 677.647 677.647 0 373.723-303.924 677.647-677.647 677.647zm596.781-160.715c120.396-138.692 193.807-319.285 193.807-516.932C1581.176 354.748 1226.428 0 790.588 0S0 354.748 0 790.588s354.748 790.588 790.588 790.588c197.647 0 378.24-73.411 516.932-193.807l516.028 516.142 79.963-79.963-516.142-516.028z" fill-rule="evenodd" id="SVGRepo_iconCarrier"/></svg></symbol><symbol id="like" viewBox="0 0 10 10"><svg width="20" height="20" viewBox="0 0 55 55" fill="none" xmlns="http://www.w3.org/2000/svg" stroke="gray"><path d="M7 2C3.313 2 1 5.215 1 8.5c0 3.341 1.674 6.2 3.772 8.43 2.1 2.233 4.705 3.927 6.78 4.964a1 1 0 00.895 0c2.076-1.037 4.68-2.73 6.782-4.964C21.326 14.7 23 11.84 23 8.5 23 5.22 20.729 2 17 2c-1.725 0-2.947.48-3.881 1.21a7.1 7.1 0 00-1.122 1.126 7.139 7.139 0 00-1.132-1.128C9.929 2.48 8.709 2 7 2z" fill="#fff" id="SVGRepo_iconCarrier"/></svg></symbol><symbol id="cart"><svg width="64" height="64" viewBox="0 0 24 24" fill="none" xmlns="http://www.w3.org/2000/svg"><path d="M4.209 17.81l-.747-.07.747.07zm15.582 0l.747-.07-.747.07zm-.761-8l-.747.071.747-.07zm-14.06 0l.747.071-.747-.07zM7.25 11a.75.75 0 001.5 0h-1.5zm8 0a.75.75 0 001.5 0h-1.5zM6.961 8.75H17.04v-1.5H6.96v1.5zm11.322 1.131l.762 8 1.493-.142-.762-8-1.493.142zM17.8 19.25H6.2v1.5h11.6v-1.5zM4.955 17.881l.762-8-1.493-.142-.762 8 1.493.142zM6.2 19.25a1.25 1.25 0 01-1.245-1.369l-1.493-.142A2.75 2.75 0 006.2 20.75v-1.5zm12.845-1.369A1.25 1.25 0 0117.8 19.25v1.5a2.75 2.75 0 002.738-3.01l-1.493.142zM17.039 8.75c.644 0 1.183.49 1.244 1.131l1.493-.142A2.75 2.75 0 0017.04 7.25v1.5zM6.96 7.25a2.75 2.75 0 00-2.737 2.49l1.493.141A1.25 1.25 0 016.961 8.75v-1.5zM8.75 7A3.25 3.25 0 0112 3.75v-1.5A4.75 4.75 0 007.25 7h1.5zM12 3.75A3.25 3.25 0 0115.25 7h1.5A4.75 4.75 0 0012 2.25v1.5zM7.25 7v4h1.5V7h-1.5zm8 0v4h1.5V7h-1.5z" fill="#000" id="SVGRepo_iconCarrier"/></svg></symbol><symbol id="close" viewBox="0 0 64 64"><svg width="64" height="64" xmlns="http://www.w3.org/2000/svg" fill="none" stroke="#000"><path d="M16 16l32 32m0-32L16 48" id="SVGRepo_iconCarrier"/></svg></symbol></svg>