<svg xmlns="http://www.w3.org/2000/svg">
  <symbol id="search" viewBox="0 0 50 50">

    <svg fill="gray" width="45px" height="45px" viewBox="0 0 1920 1920" xmlns="http://www.w3.org/2000/svg">

    <g id="SVGRepo_bgCarrier" stroke-width="0"/>

    <g id="SVGRepo_tracerCarrier" stroke-linecap="round" stroke-linejoin="round"/>

    <g id="SVGRepo_iconCarrier"> <path d="M790.588 1468.235c-373.722 0-677.647-303.924-677.647-677.647 0-373.722 303.925-677.647 677.647-677.647 373.723 0 677.647 303.925 677.647 677.647 0 373.723-303.924 677.647-677.647 677.647Zm596.781-160.715c120.396-138.692 193.807-319.285 193.807-516.932C1581.176 354.748 1226.428 0 790.588 0S0 354.748 0 790.588s354.748 790.588 790.588 790.588c197.647 0 378.24-73.411 516.932-193.807l516.028 516.142 79.963-79.963-516.142-516.028Z" fill-rule="evenodd"/> </g>

    </svg>
  </symbol>

  <symbol id="like" viewBox="0 0 10 10">
    
    <svg width="20px" height="20px" viewBox="0 0 55 55" fill="none" xmlns="http://www.w3.org/2000/svg" stroke="gray">

    <g id="SVGRepo_bgCarrier" stroke-width="0"/>

    <g id="SVGRepo_tracerCarrier" stroke-linecap="round" stroke-linejoin="round"/>

    <g id="SVGRepo_iconCarrier"> <path d="M7 2C3.31333 2 1 5.21475 1 8.5C1 11.8412 2.67415 14.6994 4.77151 16.9297C6.8721 19.1634 9.47698 20.8565 11.5528 21.8944C11.8343 22.0352 12.1657 22.0352 12.4472 21.8944C14.523 20.8565 17.1279 19.1634 19.2285 16.9297C21.3259 14.6994 23 11.8412 23 8.5C23 5.22013 20.7289 2 17 2C15.275 2 14.0531 2.47979 13.1186 3.20977C12.6785 3.55357 12.311 3.95011 11.9974 4.33639C11.6802 3.94929 11.3091 3.55266 10.8649 3.2079C9.92877 2.48125 8.70883 2 7 2Z" fill="#fff"/> </g>

    </svg>
  </symbol>

  <symbol id="cart">
    
    <svg width="64px" height="64px" viewBox="0 0 24 24" fill="none" xmlns="http://www.w3.org/2000/svg">

    <g id="SVGRepo_bgCarrier" stroke-width="0"/>

    <g id="SVGRepo_tracerCarrier" stroke-linecap="round" stroke-linejoin="round"/>

    <g id="SVGRepo_iconCarrier"> <path d="M4.20853 17.8104L3.46191 17.7393L4.20853 17.8104ZM19.7915 17.8104L20.5381 17.7393L19.7915 17.8104ZM19.0296 9.81038L18.2829 9.88149L19.0296 9.81038ZM4.97043 9.81038L5.71705 9.88149L4.97043 9.81038ZM7.24999 11C7.24999 11.4142 7.58578 11.75 7.99999 11.75C8.41421 11.75 8.74999 11.4142 8.74999 11H7.24999ZM15.25 11C15.25 11.4142 15.5858 11.75 16 11.75C16.4142 11.75 16.75 11.4142 16.75 11H15.25ZM6.96142 8.75H17.0386V7.25H6.96142V8.75ZM18.2829 9.88149L19.0448 17.8815L20.5381 17.7393L19.7762 9.73928L18.2829 9.88149ZM17.8005 19.25H6.19952V20.75H17.8005V19.25ZM4.95515 17.8815L5.71705 9.88149L4.22381 9.73928L3.46191 17.7393L4.95515 17.8815ZM6.19952 19.25C5.46234 19.25 4.88526 18.6153 4.95515 17.8815L3.46191 17.7393C3.30815 19.3538 4.57773 20.75 6.19952 20.75V19.25ZM19.0448 17.8815C19.1147 18.6153 18.5376 19.25 17.8005 19.25V20.75C19.4223 20.75 20.6918 19.3538 20.5381 17.7393L19.0448 17.8815ZM17.0386 8.75C17.683 8.75 18.2218 9.23994 18.2829 9.88149L19.7762 9.73928C19.6418 8.32788 18.4563 7.25 17.0386 7.25V8.75ZM6.96142 7.25C5.54364 7.25 4.35823 8.32788 4.22381 9.73928L5.71705 9.88149C5.77815 9.23994 6.31698 8.75 6.96142 8.75V7.25ZM8.74999 7C8.74999 5.20507 10.2051 3.75 12 3.75V2.25C9.37664 2.25 7.24999 4.37665 7.24999 7H8.74999ZM12 3.75C13.7949 3.75 15.25 5.20507 15.25 7H16.75C16.75 4.37665 14.6233 2.25 12 2.25V3.75ZM7.24999 7V11H8.74999V7H7.24999ZM15.25 7V11H16.75V7H15.25Z" fill="#000"/> </g>

    </svg>
  </symbol>

  <symbol id="close" viewBox="0 0 64 64">
    
    <svg width="64px" height="64px" viewBox="0 0 64 64" xmlns="http://www.w3.org/2000/svg" fill="none" stroke="#000000">

    <g id="SVGRepo_bgCarrier" stroke-width="0"/>

    <g id="SVGRepo_tracerCarrier" stroke-linecap="round" stroke-linejoin="round"/>

    <g id="SVGRepo_iconCarrier">

    <line x1="16" y1="16" x2="48" y2="48"/>

    <line x1="48" y1="16" x2="16" y2="48"/>

    </g>

    </svg>
  </symbol>
</svg>